<?xml version="1.0" encoding="UTF-8"?>
<svg xmlns="http://www.w3.org/2000/svg" viewBox="0 0 800 600" width="800mm" height="600mm">
<rect width="800" height="600" fill="#1a1a2e"/>
<text x="400.0" y="25" fill="#e94560" font-size="18" text-anchor="middle" font-family="monospace" font-weight="bold">PIECE 5: TOP PANEL (flat, no bends)</text>
<text x="400.0" y="45" fill="#888" font-size="11" text-anchor="middle" font-family="monospace">Material: 18 ga Mild Steel (0.048" / 1.22mm)  |  Bend radius: 0.048" / 1.22mm  |  Units: mm</text>
<rect x="50" y="80" width="342.90000000000003" height="342.90000000000003" fill="#e8e8e8" stroke="#333" stroke-width="1.5"/>
<text x="221.45000000000002" y="72" fill="#ccc" font-size="10" text-anchor="middle" font-family="monospace">PIECE 5: TOP PANEL (flat, no bends)</text>
<circle cx="65.03" cy="181.61" r="1.8" fill="none" stroke="#e94560" stroke-width="1"/>
<circle cx="225.05" cy="181.61" r="1.8" fill="none" stroke="#e94560" stroke-width="1"/>
<circle cx="65.03" cy="291.88664" r="1.8" fill="none" stroke="#e94560" stroke-width="1"/>
<circle cx="225.05" cy="291.88664" r="1.8" fill="none" stroke="#e94560" stroke-width="1"/>
<circle cx="65.03" cy="238.76" r="1.8" fill="none" stroke="#e94560" stroke-width="1"/>
<circle cx="225.05" cy="238.76" r="1.8" fill="none" stroke="#e94560" stroke-width="1"/>
<circle cx="60.8" cy="93.5" r="1.7" fill="none" stroke="#e94560" stroke-width="1"/>
<circle cx="60.8" cy="409.40000000000003" r="1.7" fill="none" stroke="#e94560" stroke-width="1"/>
<circle cx="382.1" cy="93.5" r="1.7" fill="none" stroke="#e94560" stroke-width="1"/>
<circle cx="382.1" cy="409.40000000000003" r="1.7" fill="none" stroke="#e94560" stroke-width="1"/>
<line x1="50" y1="65" x2="392.90000000000003" y2="65" stroke="#666" stroke-width="0.8"/>
<line x1="50" y1="62" x2="50" y2="68" stroke="#666" stroke-width="0.8"/>
<line x1="392.90000000000003" y1="62" x2="392.90000000000003" y2="68" stroke="#666" stroke-width="0.8"/>
<text x="221.45000000000002" y="59" fill="#888" font-size="8" text-anchor="middle" font-family="monospace">190.5mm</text>
<line x1="15" y1="251.45000000000002" x2="45" y2="251.45000000000002" stroke="#666" stroke-width="0.8"/>
<line x1="15" y1="248.45000000000002" x2="15" y2="254.45000000000002" stroke="#666" stroke-width="0.8"/>
<line x1="45" y1="248.45000000000002" x2="45" y2="254.45000000000002" stroke="#666" stroke-width="0.8"/>
<text x="30.0" y="245.45000000000002" fill="#888" font-size="8" text-anchor="middle" font-family="monospace">190.5mm</text>
</svg>