<?xml version="1.0" encoding="UTF-8"?>
<svg xmlns="http://www.w3.org/2000/svg" viewBox="0 0 800 600" width="800mm" height="600mm">
<rect width="800" height="600" fill="#1a1a2e"/>
<text x="400.0" y="25" fill="#e94560" font-size="18" text-anchor="middle" font-family="monospace" font-weight="bold">PIECE 4: REAR PANEL (flat, no bends)</text>
<text x="400.0" y="45" fill="#888" font-size="11" text-anchor="middle" font-family="monospace">Material: 18 ga Mild Steel (0.048" / 1.22mm)  |  Bend radius: 0.048" / 1.22mm  |  Units: mm</text>
<rect x="50" y="80" width="338.50800000000004" height="114.3" fill="#e8e8e8" stroke="#333" stroke-width="1.5"/>
<text x="219.25400000000002" y="72" fill="#ccc" font-size="10" text-anchor="middle" font-family="monospace">PIECE 4: REAR PANEL (flat, no bends)</text>
<rect x="88.844" y="83.15" width="108.0" height="108.0" fill="#440" stroke="#e94560" stroke-width="1.2"/>
<text x="142.844" y="140.15" fill="#e94560" font-size="7" text-anchor="middle" font-family="monospace">60mm EXHAUST</text>
<circle cx="98.844" cy="93.15" r="1.75" fill="none" stroke="#e94560" stroke-width="1"/>
<circle cx="98.844" cy="183.15" r="1.75" fill="none" stroke="#e94560" stroke-width="1"/>
<circle cx="188.844" cy="183.15" r="1.75" fill="none" stroke="#e94560" stroke-width="1"/>
<circle cx="188.844" cy="183.15" r="1.75" fill="none" stroke="#e94560" stroke-width="1"/>
<rect x="110.804" y="115.55000000000001" width="16" height="25" fill="#225" stroke="#4af" stroke-width="1"/>
<text x="118.804" y="128.55" fill="#4af" font-size="6" text-anchor="middle" font-family="monospace">ETH1</text>
<rect x="110.804" y="158.75" width="16" height="25" fill="#225" stroke="#4af" stroke-width="1"/>
<text x="118.804" y="171.75" fill="#4af" font-size="6" text-anchor="middle" font-family="monospace">ETH2</text>
<rect x="237.704" y="116.35" width="13" height="21" fill="#252" stroke="#4a4" stroke-width="1"/>
<text x="243.704" y="113.35" fill="#4a4" font-size="6" text-anchor="middle" font-family="monospace">USB-C</text>
<rect x="309.704" y="148.15" width="10" height="14" fill="#522" stroke="#f44" stroke-width="1"/>
<text x="314.704" y="145.15" fill="#f44" font-size="6" text-anchor="middle" font-family="monospace">DC</text>
<circle cx="57.2" cy="127.088" r="1.75" fill="none" stroke="#e94560" stroke-width="1"/>
<circle cx="57.2" cy="143.288" r="1.75" fill="none" stroke="#e94560" stroke-width="1"/>
<circle cx="381.308" cy="127.088" r="1.75" fill="none" stroke="#e94560" stroke-width="1"/>
<circle cx="381.308" cy="143.288" r="1.75" fill="none" stroke="#e94560" stroke-width="1"/>
</svg>